# xmcd CD database file
#
# Track frame offsets:
#	150
#	42384
#	70737
#	96346
#	130934
#	166632
#	173544
#	201988
#	231925
#
# Disc length: 3221 seconds
#
# Revision: 0
# Processed by: cddbd v1.5.2PL0 Copyright (c) Steve Scherf et al.
# Submitted via: CDex 1.70beta2
#
DISCID=740c9309
DTITLE=Fats Navarro - Bebop Story Vol 7 1950 CD 039
DYEAR=2008
DGENRE=Jazz
TTITLE0=The Street Beat
TTITLE1=Out Of Nowhere
TTITLE2=Little Willie Leaps and 52nd Street Theme
TTITLE3=Ornithology
TTITLE4=I'll Remeber April
TTITLE5=52nd Street
TTITLE6=Embraceable You
TTITLE7=Cool Blues
TTITLE8=52nd Street
EXTD=YEAR: 2008
EXTT0=
EXTT1=
EXTT2=
EXTT3=
EXTT4=
EXTT5=
EXTT6=
EXTT7=
EXTT8=
PLAYORDER=
